STARTFONT 2.1
FONT fg-13
COMMENT
COMMENT GENERATED BY "../snftobdf 1.0"
COMMENT AUTHOR mleisher@nmsu.edu (Mark Leisher)
COMMENT DATE Wed Dec 19 17:00:08 1990
COMMENT
SIZE 9 75 75
FONTBOUNDINGBOX 9 13 0 -2
STARTPROPERTIES 10
COPYRIGHT "Public domain font.  Share and enjoy."
FAMILY_NAME "fg-13.bdf"
POINT_SIZE 120
WEIGHT 166
RESOLUTION 103
X_HEIGHT 11
QUAD_WIDTH 9
DEFAULT_CHAR 0
FONT_ASCENT 11
FONT_DESCENT 2
ENDPROPERTIES
CHARS 122
STARTCHAR C001
ENCODING 1
SWIDTH 963 0
DWIDTH 9 0
BBX 9 13 0 -2
BITMAP
0000
1000
1000
1000
1000
1000
1000
5400
3800
1000
0000
0000
0000
ENDCHAR
STARTCHAR C002
ENCODING 2
SWIDTH 963 0
DWIDTH 9 0
BBX 9 13 0 -2
BITMAP
0000
0000
0000
0000
2200
5400
8800
8800
8800
5400
2200
0000
0000
ENDCHAR
STARTCHAR C003
ENCODING 3
SWIDTH 963 0
DWIDTH 9 0
BBX 9 13 0 -2
BITMAP
0000
1c00
2200
2200
4200
7c00
4200
4200
4200
7c00
4000
4000
4000
ENDCHAR
STARTCHAR C004
ENCODING 4
SWIDTH 963 0
DWIDTH 9 0
BBX 9 13 0 -2
BITMAP
0000
0000
0000
0000
0000
1000
2800
4400
8200
0000
0000
0000
0000
ENDCHAR
STARTCHAR C005
ENCODING 5
SWIDTH 963 0
DWIDTH 9 0
BBX 9 13 0 -2
BITMAP
0000
0000
0000
0000
fe00
0200
0200
0000
0000
0000
0000
0000
0000
ENDCHAR
STARTCHAR C006
ENCODING 6
SWIDTH 963 0
DWIDTH 9 0
BBX 9 13 0 -2
BITMAP
0000
0000
0000
0000
1c00
2000
4000
7c00
4000
2000
1c00
0000
0000
ENDCHAR
STARTCHAR C007
ENCODING 7
SWIDTH 963 0
DWIDTH 9 0
BBX 9 13 0 -2
BITMAP
0000
0000
0000
0000
fe00
4400
4400
4400
4400
4400
4400
0000
0000
ENDCHAR
STARTCHAR C010
ENCODING 8
SWIDTH 963 0
DWIDTH 9 0
BBX 9 13 0 -2
BITMAP
8000
4000
4000
2000
1000
1000
2800
2400
4400
4200
8200
0000
0000
ENDCHAR
STARTCHAR C013
ENCODING 11
SWIDTH 963 0
DWIDTH 9 0
BBX 9 13 0 -2
BITMAP
0000
1000
3800
5400
1000
1000
1000
1000
1000
1000
0000
0000
0000
ENDCHAR
STARTCHAR C016
ENCODING 14
SWIDTH 963 0
DWIDTH 9 0
BBX 9 13 0 -2
BITMAP
0000
0000
0000
0000
6c00
9200
9200
9200
9200
6c00
0000
0000
0000
ENDCHAR
STARTCHAR C017
ENCODING 15
SWIDTH 963 0
DWIDTH 9 0
BBX 9 13 0 -2
BITMAP
7c00
c600
0200
0200
0200
7e00
c200
8200
8200
c600
7c00
0000
0000
ENDCHAR
STARTCHAR C020
ENCODING 16
SWIDTH 963 0
DWIDTH 9 0
BBX 9 13 0 -2
BITMAP
0000
0000
0000
7e00
c000
8000
8000
c000
7e00
0000
0000
0000
0000
ENDCHAR
STARTCHAR C021
ENCODING 17
SWIDTH 963 0
DWIDTH 9 0
BBX 9 13 0 -2
BITMAP
0000
0000
0000
fc00
0600
0200
0200
0600
fc00
0000
0000
0000
0000
ENDCHAR
STARTCHAR C022
ENCODING 18
SWIDTH 963 0
DWIDTH 9 0
BBX 9 13 0 -2
BITMAP
7c00
c600
8200
8200
8200
8200
8200
8200
8200
8200
8200
0000
0000
ENDCHAR
STARTCHAR C023
ENCODING 19
SWIDTH 963 0
DWIDTH 9 0
BBX 9 13 0 -2
BITMAP
8200
8200
8200
8200
8200
8200
8200
8200
8200
c600
7c00
0000
0000
ENDCHAR
STARTCHAR C024
ENCODING 20
SWIDTH 963 0
DWIDTH 9 0
BBX 9 13 0 -2
BITMAP
8200
8200
8200
7c00
4400
4400
2800
2800
2800
1000
1000
0000
0000
ENDCHAR
STARTCHAR C025
ENCODING 21
SWIDTH 963 0
DWIDTH 9 0
BBX 9 13 0 -2
BITMAP
fe00
0200
0200
0200
0200
7e00
0200
0200
0200
0200
fe00
0000
0000
ENDCHAR
STARTCHAR C026
ENCODING 22
SWIDTH 963 0
DWIDTH 9 0
BBX 9 13 0 -2
BITMAP
0000
0000
0000
3800
4400
aa00
9200
aa00
4400
3800
0000
0000
0000
ENDCHAR
STARTCHAR C027
ENCODING 23
SWIDTH 963 0
DWIDTH 9 0
BBX 9 13 0 -2
BITMAP
0000
0000
0000
2400
4200
ff00
4200
2400
0000
0000
0000
0000
0000
ENDCHAR
STARTCHAR C030
ENCODING 24
SWIDTH 963 0
DWIDTH 9 0
BBX 9 13 0 -2
BITMAP
0000
0000
0000
0000
2000
4000
fe00
4000
2000
0000
0000
0000
0000
ENDCHAR
STARTCHAR C031
ENCODING 25
SWIDTH 963 0
DWIDTH 9 0
BBX 9 13 0 -2
BITMAP
0000
0000
0000
0000
0800
0400
fe00
0400
0800
0000
0000
0000
0000
ENDCHAR
STARTCHAR C032
ENCODING 26
SWIDTH 963 0
DWIDTH 9 0
BBX 9 13 0 -2
BITMAP
0000
0400
0400
0800
fe00
1000
2000
fe00
4000
4000
8000
0000
0000
ENDCHAR
STARTCHAR C033
ENCODING 27
SWIDTH 963 0
DWIDTH 9 0
BBX 9 13 0 -2
BITMAP
0000
0000
0000
0000
9c00
7200
0000
0000
0000
0000
0000
0000
0000
ENDCHAR
STARTCHAR C034
ENCODING 28
SWIDTH 963 0
DWIDTH 9 0
BBX 9 13 0 -2
BITMAP
0400
0800
1000
2000
4000
8000
4000
2000
1000
0800
0400
0000
fc00
ENDCHAR
STARTCHAR C035
ENCODING 29
SWIDTH 963 0
DWIDTH 9 0
BBX 9 13 0 -2
BITMAP
4000
2000
1000
0800
0400
0200
0400
0800
1000
2000
4000
0000
7e00
ENDCHAR
STARTCHAR C036
ENCODING 30
SWIDTH 963 0
DWIDTH 9 0
BBX 9 13 0 -2
BITMAP
0000
0000
fe00
0000
0000
fe00
0000
0000
fe00
0000
0000
0000
0000
ENDCHAR
STARTCHAR C037
ENCODING 31
SWIDTH 963 0
DWIDTH 9 0
BBX 9 13 0 -2
BITMAP
0000
0000
0000
0000
0000
8200
4400
2800
1000
0000
0000
0000
0000
ENDCHAR
STARTCHAR C040
ENCODING 32
SWIDTH 963 0
DWIDTH 9 0
BBX 9 13 0 -2
BITMAP
0000
0000
0000
0000
0000
0000
0000
0000
0000
0000
0000
0000
0000
ENDCHAR
STARTCHAR C041
ENCODING 33
SWIDTH 963 0
DWIDTH 9 0
BBX 9 13 0 -2
BITMAP
1000
1000
1000
1000
1000
1000
1000
0000
0000
1000
1000
0000
0000
ENDCHAR
STARTCHAR C042
ENCODING 34
SWIDTH 963 0
DWIDTH 9 0
BBX 9 13 0 -2
BITMAP
6c00
6c00
2800
2800
0000
0000
0000
0000
0000
0000
0000
0000
0000
ENDCHAR
STARTCHAR C043
ENCODING 35
SWIDTH 963 0
DWIDTH 9 0
BBX 9 13 0 -2
BITMAP
0000
0000
4400
4400
fe00
4400
4400
fe00
4400
4400
0000
0000
0000
ENDCHAR
STARTCHAR C044
ENCODING 36
SWIDTH 963 0
DWIDTH 9 0
BBX 9 13 0 -2
BITMAP
1000
7c00
d600
9000
d000
7c00
1600
1200
d600
7c00
1000
0000
0000
ENDCHAR
STARTCHAR C045
ENCODING 37
SWIDTH 963 0
DWIDTH 9 0
BBX 9 13 0 -2
BITMAP
6000
9000
9200
6400
0800
1000
2000
4c00
9200
1200
0c00
0000
0000
ENDCHAR
STARTCHAR C046
ENCODING 38
SWIDTH 963 0
DWIDTH 9 0
BBX 9 13 0 -2
BITMAP
3000
4800
8800
8800
9000
6000
6000
9000
8a00
8400
7a00
0000
0000
ENDCHAR
STARTCHAR C047
ENCODING 39
SWIDTH 963 0
DWIDTH 9 0
BBX 9 13 0 -2
BITMAP
3000
3000
1000
1000
0000
0000
0000
0000
0000
0000
0000
0000
0000
ENDCHAR
STARTCHAR C050
ENCODING 40
SWIDTH 963 0
DWIDTH 9 0
BBX 9 13 0 -2
BITMAP
0800
1000
2000
2000
2000
2000
2000
2000
2000
1000
0800
0000
0000
ENDCHAR
STARTCHAR C051
ENCODING 41
SWIDTH 963 0
DWIDTH 9 0
BBX 9 13 0 -2
BITMAP
2000
1000
0800
0800
0800
0800
0800
0800
0800
1000
2000
0000
0000
ENDCHAR
STARTCHAR C052
ENCODING 42
SWIDTH 963 0
DWIDTH 9 0
BBX 9 13 0 -2
BITMAP
0000
0000
9200
5400
3800
fe00
3800
5400
9200
0000
0000
0000
0000
ENDCHAR
STARTCHAR C053
ENCODING 43
SWIDTH 963 0
DWIDTH 9 0
BBX 9 13 0 -2
BITMAP
0000
0000
1000
1000
1000
fe00
1000
1000
1000
0000
0000
0000
0000
ENDCHAR
STARTCHAR C054
ENCODING 44
SWIDTH 963 0
DWIDTH 9 0
BBX 9 13 0 -2
BITMAP
0000
0000
0000
0000
0000
0000
0000
1800
1800
1000
2000
0000
0000
ENDCHAR
STARTCHAR C055
ENCODING 45
SWIDTH 963 0
DWIDTH 9 0
BBX 9 13 0 -2
BITMAP
0000
0000
0000
0000
0000
fe00
0000
0000
0000
0000
0000
0000
0000
ENDCHAR
STARTCHAR C056
ENCODING 46
SWIDTH 963 0
DWIDTH 9 0
BBX 9 13 0 -2
BITMAP
0000
0000
0000
0000
0000
0000
0000
0000
3000
3000
0000
0000
0000
ENDCHAR
STARTCHAR C057
ENCODING 47
SWIDTH 963 0
DWIDTH 9 0
BBX 9 13 0 -2
BITMAP
0200
0200
0400
0400
0800
0800
1000
1000
2000
2000
4000
4000
0000
ENDCHAR
STARTCHAR C060
ENCODING 48
SWIDTH 963 0
DWIDTH 9 0
BBX 9 13 0 -2
BITMAP
3800
4400
8200
8600
8a00
9200
a200
c200
8200
4400
3800
0000
0000
ENDCHAR
STARTCHAR C061
ENCODING 49
SWIDTH 963 0
DWIDTH 9 0
BBX 9 13 0 -2
BITMAP
1000
3000
5000
1000
1000
1000
1000
1000
1000
1000
7c00
0000
0000
ENDCHAR
STARTCHAR C062
ENCODING 50
SWIDTH 963 0
DWIDTH 9 0
BBX 9 13 0 -2
BITMAP
7c00
c600
0200
0400
0800
1000
2000
4000
8000
8000
fe00
0000
0000
ENDCHAR
STARTCHAR C063
ENCODING 51
SWIDTH 963 0
DWIDTH 9 0
BBX 9 13 0 -2
BITMAP
7c00
c600
0200
0200
0600
7c00
0600
0200
0200
c600
7c00
0000
0000
ENDCHAR
STARTCHAR C064
ENCODING 52
SWIDTH 963 0
DWIDTH 9 0
BBX 9 13 0 -2
BITMAP
0800
1800
2800
4800
8800
fe00
0800
0800
0800
0800
0800
0000
0000
ENDCHAR
STARTCHAR C065
ENCODING 53
SWIDTH 963 0
DWIDTH 9 0
BBX 9 13 0 -2
BITMAP
fe00
8000
8000
8000
8000
fc00
0600
0200
0200
c600
7c00
0000
0000
ENDCHAR
STARTCHAR C066
ENCODING 54
SWIDTH 963 0
DWIDTH 9 0
BBX 9 13 0 -2
BITMAP
7c00
c600
8000
8000
8000
fc00
8600
8200
8200
c600
7c00
0000
0000
ENDCHAR
STARTCHAR C067
ENCODING 55
SWIDTH 963 0
DWIDTH 9 0
BBX 9 13 0 -2
BITMAP
fe00
0200
0200
0200
0400
0800
1000
2000
2000
2000
2000
0000
0000
ENDCHAR
STARTCHAR C070
ENCODING 56
SWIDTH 963 0
DWIDTH 9 0
BBX 9 13 0 -2
BITMAP
7c00
c600
8200
8200
c600
7c00
c600
8200
8200
c600
7c00
0000
0000
ENDCHAR
STARTCHAR C071
ENCODING 57
SWIDTH 963 0
DWIDTH 9 0
BBX 9 13 0 -2
BITMAP
7c00
c600
8200
8200
c600
7a00
0200
0200
0200
c600
7c00
0000
0000
ENDCHAR
STARTCHAR C072
ENCODING 58
SWIDTH 963 0
DWIDTH 9 0
BBX 9 13 0 -2
BITMAP
0000
0000
0000
0000
3000
3000
0000
0000
3000
3000
0000
0000
0000
ENDCHAR
STARTCHAR C073
ENCODING 59
SWIDTH 963 0
DWIDTH 9 0
BBX 9 13 0 -2
BITMAP
0000
0000
0000
1800
1800
0000
0000
1800
1800
1000
2000
0000
0000
ENDCHAR
STARTCHAR C074
ENCODING 60
SWIDTH 963 0
DWIDTH 9 0
BBX 9 13 0 -2
BITMAP
0400
0800
1000
2000
4000
8000
4000
2000
1000
0800
0400
0000
0000
ENDCHAR
STARTCHAR C075
ENCODING 61
SWIDTH 963 0
DWIDTH 9 0
BBX 9 13 0 -2
BITMAP
0000
0000
0000
0000
fe00
0000
0000
fe00
0000
0000
0000
0000
0000
ENDCHAR
STARTCHAR C076
ENCODING 62
SWIDTH 963 0
DWIDTH 9 0
BBX 9 13 0 -2
BITMAP
4000
2000
1000
0800
0400
0200
0400
0800
1000
2000
4000
0000
0000
ENDCHAR
STARTCHAR C077
ENCODING 63
SWIDTH 963 0
DWIDTH 9 0
BBX 9 13 0 -2
BITMAP
7c00
8200
8200
0200
0400
0800
1000
1000
0000
0000
1000
0000
0000
ENDCHAR
STARTCHAR C100
ENCODING 64
SWIDTH 963 0
DWIDTH 9 0
BBX 9 13 0 -2
BITMAP
0000
0000
0000
7e00
8200
ba00
aa00
ba00
8e00
8000
7e00
0000
0000
ENDCHAR
STARTCHAR C101
ENCODING 65
SWIDTH 963 0
DWIDTH 9 0
BBX 9 13 0 -2
BITMAP
1000
2800
4400
8200
8200
8200
fe00
8200
8200
8200
8200
0000
0000
ENDCHAR
STARTCHAR C102
ENCODING 66
SWIDTH 963 0
DWIDTH 9 0
BBX 9 13 0 -2
BITMAP
fc00
8600
8200
8200
8600
fc00
8600
8200
8200
8600
fc00
0000
0000
ENDCHAR
STARTCHAR C103
ENCODING 67
SWIDTH 963 0
DWIDTH 9 0
BBX 9 13 0 -2
BITMAP
7c00
c600
8000
8000
8000
8000
8000
8000
8000
c600
7c00
0000
0000
ENDCHAR
STARTCHAR C104
ENCODING 68
SWIDTH 963 0
DWIDTH 9 0
BBX 9 13 0 -2
BITMAP
f800
8c00
8600
8200
8200
8200
8200
8200
8600
8c00
f800
0000
0000
ENDCHAR
STARTCHAR C105
ENCODING 69
SWIDTH 963 0
DWIDTH 9 0
BBX 9 13 0 -2
BITMAP
fe00
8000
8000
8000
8000
f800
8000
8000
8000
8000
fe00
0000
0000
ENDCHAR
STARTCHAR C106
ENCODING 70
SWIDTH 963 0
DWIDTH 9 0
BBX 9 13 0 -2
BITMAP
fe00
8000
8000
8000
f800
8000
8000
8000
8000
8000
8000
0000
0000
ENDCHAR
STARTCHAR C107
ENCODING 71
SWIDTH 963 0
DWIDTH 9 0
BBX 9 13 0 -2
BITMAP
7c00
c600
8000
8000
8000
8000
8e00
8200
8200
c600
7c00
0000
0000
ENDCHAR
STARTCHAR C110
ENCODING 72
SWIDTH 963 0
DWIDTH 9 0
BBX 9 13 0 -2
BITMAP
8200
8200
8200
8200
8200
fe00
8200
8200
8200
8200
8200
0000
0000
ENDCHAR
STARTCHAR C111
ENCODING 73
SWIDTH 963 0
DWIDTH 9 0
BBX 9 13 0 -2
BITMAP
7c00
1000
1000
1000
1000
1000
1000
1000
1000
1000
7c00
0000
0000
ENDCHAR
STARTCHAR C112
ENCODING 74
SWIDTH 963 0
DWIDTH 9 0
BBX 9 13 0 -2
BITMAP
0400
0400
0400
0400
0400
0400
0400
0400
8400
cc00
7800
0000
0000
ENDCHAR
STARTCHAR C113
ENCODING 75
SWIDTH 963 0
DWIDTH 9 0
BBX 9 13 0 -2
BITMAP
8200
8400
8800
9000
a000
c000
a000
9000
8800
8400
8200
0000
0000
ENDCHAR
STARTCHAR C114
ENCODING 76
SWIDTH 963 0
DWIDTH 9 0
BBX 9 13 0 -2
BITMAP
8000
8000
8000
8000
8000
8000
8000
8000
8000
8000
fe00
0000
0000
ENDCHAR
STARTCHAR C115
ENCODING 77
SWIDTH 963 0
DWIDTH 9 0
BBX 9 13 0 -2
BITMAP
8200
c600
aa00
ba00
9200
8200
8200
8200
8200
8200
8200
0000
0000
ENDCHAR
STARTCHAR C116
ENCODING 78
SWIDTH 963 0
DWIDTH 9 0
BBX 9 13 0 -2
BITMAP
c200
c200
e200
a200
b200
9200
9a00
8a00
8e00
8600
8600
0000
0000
ENDCHAR
STARTCHAR C117
ENCODING 79
SWIDTH 963 0
DWIDTH 9 0
BBX 9 13 0 -2
BITMAP
7c00
c600
8200
8200
8200
8200
8200
8200
8200
c600
7c00
0000
0000
ENDCHAR
STARTCHAR C120
ENCODING 80
SWIDTH 963 0
DWIDTH 9 0
BBX 9 13 0 -2
BITMAP
fc00
8600
8200
8200
8600
fc00
8000
8000
8000
8000
8000
0000
0000
ENDCHAR
STARTCHAR C121
ENCODING 81
SWIDTH 963 0
DWIDTH 9 0
BBX 9 13 0 -2
BITMAP
3800
4400
8200
8200
8200
8200
8200
9200
9a00
4c00
3e00
0000
0000
ENDCHAR
STARTCHAR C122
ENCODING 82
SWIDTH 963 0
DWIDTH 9 0
BBX 9 13 0 -2
BITMAP
fc00
8600
8200
8200
8600
fc00
a000
9000
8800
8400
8200
0000
0000
ENDCHAR
STARTCHAR C123
ENCODING 83
SWIDTH 963 0
DWIDTH 9 0
BBX 9 13 0 -2
BITMAP
7c00
c600
8000
8000
c000
7c00
0600
0200
0200
c600
7c00
0000
0000
ENDCHAR
STARTCHAR C124
ENCODING 84
SWIDTH 963 0
DWIDTH 9 0
BBX 9 13 0 -2
BITMAP
fe00
1000
1000
1000
1000
1000
1000
1000
1000
1000
1000
0000
0000
ENDCHAR
STARTCHAR C125
ENCODING 85
SWIDTH 963 0
DWIDTH 9 0
BBX 9 13 0 -2
BITMAP
8200
8200
8200
8200
8200
8200
8200
8200
8200
c600
7c00
0000
0000
ENDCHAR
STARTCHAR C126
ENCODING 86
SWIDTH 963 0
DWIDTH 9 0
BBX 9 13 0 -2
BITMAP
8200
8200
8200
8200
8200
8200
4400
4400
2800
2800
1000
0000
0000
ENDCHAR
STARTCHAR C127
ENCODING 87
SWIDTH 963 0
DWIDTH 9 0
BBX 9 13 0 -2
BITMAP
8200
8200
8200
8200
8200
9200
9200
aa00
aa00
c600
8200
0000
0000
ENDCHAR
STARTCHAR C130
ENCODING 88
SWIDTH 963 0
DWIDTH 9 0
BBX 9 13 0 -2
BITMAP
8200
4400
4400
2800
2800
1000
2800
2800
4400
4400
8200
0000
0000
ENDCHAR
STARTCHAR C131
ENCODING 89
SWIDTH 963 0
DWIDTH 9 0
BBX 9 13 0 -2
BITMAP
8200
4400
4400
2800
2800
1000
1000
1000
1000
1000
1000
0000
0000
ENDCHAR
STARTCHAR C132
ENCODING 90
SWIDTH 963 0
DWIDTH 9 0
BBX 9 13 0 -2
BITMAP
fe00
0200
0200
0400
0800
7c00
2000
4000
8000
8000
fe00
0000
0000
ENDCHAR
STARTCHAR C133
ENCODING 91
SWIDTH 963 0
DWIDTH 9 0
BBX 9 13 0 -2
BITMAP
3800
2000
2000
2000
2000
2000
2000
2000
2000
2000
3800
0000
0000
ENDCHAR
STARTCHAR C134
ENCODING 92
SWIDTH 963 0
DWIDTH 9 0
BBX 9 13 0 -2
BITMAP
4000
4000
2000
2000
1000
1000
0800
0800
0400
0400
0200
0200
0000
ENDCHAR
STARTCHAR C135
ENCODING 93
SWIDTH 963 0
DWIDTH 9 0
BBX 9 13 0 -2
BITMAP
3800
0800
0800
0800
0800
0800
0800
0800
0800
0800
3800
0000
0000
ENDCHAR
STARTCHAR C136
ENCODING 94
SWIDTH 963 0
DWIDTH 9 0
BBX 9 13 0 -2
BITMAP
1000
2800
4400
8200
0000
0000
0000
0000
0000
0000
0000
0000
0000
ENDCHAR
STARTCHAR C137
ENCODING 95
SWIDTH 963 0
DWIDTH 9 0
BBX 9 13 0 -2
BITMAP
0000
0000
0000
0000
0000
0000
0000
0000
0000
0000
0000
0000
fe00
ENDCHAR
STARTCHAR C140
ENCODING 96
SWIDTH 963 0
DWIDTH 9 0
BBX 9 13 0 -2
BITMAP
1800
1800
1000
1000
0000
0000
0000
0000
0000
0000
0000
0000
0000
ENDCHAR
STARTCHAR C141
ENCODING 97
SWIDTH 963 0
DWIDTH 9 0
BBX 9 13 0 -2
BITMAP
0000
0000
0000
0000
7c00
8200
0200
7e00
8200
8200
7e00
0000
0000
ENDCHAR
STARTCHAR C142
ENCODING 98
SWIDTH 963 0
DWIDTH 9 0
BBX 9 13 0 -2
BITMAP
8000
8000
8000
8000
8000
fc00
8200
8200
8200
8200
fc00
0000
0000
ENDCHAR
STARTCHAR C143
ENCODING 99
SWIDTH 963 0
DWIDTH 9 0
BBX 9 13 0 -2
BITMAP
0000
0000
0000
0000
7c00
8200
8000
8000
8000
8200
7c00
0000
0000
ENDCHAR
STARTCHAR C144
ENCODING 100
SWIDTH 963 0
DWIDTH 9 0
BBX 9 13 0 -2
BITMAP
0200
0200
0200
0200
0200
7e00
8200
8200
8200
8200
7e00
0000
0000
ENDCHAR
STARTCHAR C145
ENCODING 101
SWIDTH 963 0
DWIDTH 9 0
BBX 9 13 0 -2
BITMAP
0000
0000
0000
0000
7c00
8200
8200
fc00
8000
8000
7e00
0000
0000
ENDCHAR
STARTCHAR C146
ENCODING 102
SWIDTH 963 0
DWIDTH 9 0
BBX 9 13 0 -2
BITMAP
1c00
2200
2000
2000
2000
f800
2000
2000
2000
2000
2000
0000
0000
ENDCHAR
STARTCHAR C147
ENCODING 103
SWIDTH 963 0
DWIDTH 9 0
BBX 9 13 0 -2
BITMAP
0000
0000
0000
0000
7c00
8200
8200
8200
7e00
0200
0200
8200
7c00
ENDCHAR
STARTCHAR C150
ENCODING 104
SWIDTH 963 0
DWIDTH 9 0
BBX 9 13 0 -2
BITMAP
8000
8000
8000
8000
fc00
8200
8200
8200
8200
8200
8200
0000
0000
ENDCHAR
STARTCHAR C151
ENCODING 105
SWIDTH 963 0
DWIDTH 9 0
BBX 9 13 0 -2
BITMAP
0000
1000
0000
0000
1000
1000
1000
1000
1000
1000
1000
0000
0000
ENDCHAR
STARTCHAR C152
ENCODING 106
SWIDTH 963 0
DWIDTH 9 0
BBX 9 13 0 -2
BITMAP
0000
0800
0000
0000
0800
0800
0800
0800
0800
0800
0800
4800
3000
ENDCHAR
STARTCHAR C153
ENCODING 107
SWIDTH 963 0
DWIDTH 9 0
BBX 9 13 0 -2
BITMAP
8000
8000
8000
8000
8400
8800
9000
a000
d000
8800
8400
0000
0000
ENDCHAR
STARTCHAR C154
ENCODING 108
SWIDTH 963 0
DWIDTH 9 0
BBX 9 13 0 -2
BITMAP
7000
1000
1000
1000
1000
1000
1000
1000
1000
1000
7c00
0000
0000
ENDCHAR
STARTCHAR C155
ENCODING 109
SWIDTH 963 0
DWIDTH 9 0
BBX 9 13 0 -2
BITMAP
0000
0000
0000
0000
ec00
9200
9200
9200
9200
9200
9200
0000
0000
ENDCHAR
STARTCHAR C156
ENCODING 110
SWIDTH 963 0
DWIDTH 9 0
BBX 9 13 0 -2
BITMAP
0000
0000
0000
0000
f800
8400
8400
8400
8400
8400
8400
0000
0000
ENDCHAR
STARTCHAR C157
ENCODING 111
SWIDTH 963 0
DWIDTH 9 0
BBX 9 13 0 -2
BITMAP
0000
0000
0000
0000
7800
8400
8400
8400
8400
8400
7800
0000
0000
ENDCHAR
STARTCHAR C160
ENCODING 112
SWIDTH 963 0
DWIDTH 9 0
BBX 9 13 0 -2
BITMAP
0000
0000
0000
0000
fc00
8200
8200
8200
8200
fc00
8000
8000
8000
ENDCHAR
STARTCHAR C161
ENCODING 113
SWIDTH 963 0
DWIDTH 9 0
BBX 9 13 0 -2
BITMAP
0000
0000
0000
0000
7e00
8200
8200
8200
8200
7e00
0200
0200
0200
ENDCHAR
STARTCHAR C162
ENCODING 114
SWIDTH 963 0
DWIDTH 9 0
BBX 9 13 0 -2
BITMAP
0000
0000
0000
0000
bc00
c000
8000
8000
8000
8000
8000
0000
0000
ENDCHAR
STARTCHAR C163
ENCODING 115
SWIDTH 963 0
DWIDTH 9 0
BBX 9 13 0 -2
BITMAP
0000
0000
0000
0000
7e00
8000
8000
7c00
0200
0200
fc00
0000
0000
ENDCHAR
STARTCHAR C164
ENCODING 116
SWIDTH 963 0
DWIDTH 9 0
BBX 9 13 0 -2
BITMAP
0000
2000
2000
2000
f800
2000
2000
2000
2000
2400
1800
0000
0000
ENDCHAR
STARTCHAR C165
ENCODING 117
SWIDTH 963 0
DWIDTH 9 0
BBX 9 13 0 -2
BITMAP
0000
0000
0000
0000
8400
8400
8400
8400
8400
8400
7c00
0000
0000
ENDCHAR
STARTCHAR C166
ENCODING 118
SWIDTH 963 0
DWIDTH 9 0
BBX 9 13 0 -2
BITMAP
0000
0000
0000
0000
8200
8200
4400
4400
2800
3800
1000
0000
0000
ENDCHAR
STARTCHAR C167
ENCODING 119
SWIDTH 963 0
DWIDTH 9 0
BBX 9 13 0 -2
BITMAP
0000
0000
0000
0000
8200
8200
8200
9200
aa00
c600
8200
0000
0000
ENDCHAR
STARTCHAR C170
ENCODING 120
SWIDTH 963 0
DWIDTH 9 0
BBX 9 13 0 -2
BITMAP
0000
0000
0000
0000
8200
4400
2800
1000
2800
4400
8200
0000
0000
ENDCHAR
STARTCHAR C171
ENCODING 121
SWIDTH 963 0
DWIDTH 9 0
BBX 9 13 0 -2
BITMAP
0000
0000
0000
0000
8200
4400
4400
2800
1000
2000
4000
4000
8000
ENDCHAR
STARTCHAR C172
ENCODING 122
SWIDTH 963 0
DWIDTH 9 0
BBX 9 13 0 -2
BITMAP
0000
0000
0000
0000
fe00
0400
0800
1000
2000
4000
fe00
0000
0000
ENDCHAR
STARTCHAR C173
ENCODING 123
SWIDTH 963 0
DWIDTH 9 0
BBX 9 13 0 -2
BITMAP
0e00
1000
1000
1000
3000
e000
3000
1000
1000
1000
0e00
0000
0000
ENDCHAR
STARTCHAR C174
ENCODING 124
SWIDTH 963 0
DWIDTH 9 0
BBX 9 13 0 -2
BITMAP
1000
1000
1000
1000
1000
1000
1000
1000
1000
1000
1000
1000
1000
ENDCHAR
STARTCHAR C175
ENCODING 125
SWIDTH 963 0
DWIDTH 9 0
BBX 9 13 0 -2
BITMAP
e000
1000
1000
1000
1800
0e00
1800
1000
1000
1000
e000
0000
0000
ENDCHAR
STARTCHAR C176
ENCODING 126
SWIDTH 963 0
DWIDTH 9 0
BBX 9 13 0 -2
BITMAP
0000
0000
0000
0000
9c00
7200
0000
0000
0000
0000
0000
0000
0000
ENDCHAR
ENDFONT
